<?xml version="1.0" encoding="iso-8859-1"?>
<!-- Generator: Adobe Illustrator 18.0.0, SVG Export Plug-In . SVG Version: 6.00 Build 0)  -->
<!DOCTYPE svg PUBLIC "-//W3C//DTD SVG 1.1//EN" "http://www.w3.org/Graphics/SVG/1.1/DTD/svg11.dtd">
<svg version="1.1" id="Capa_1" xmlns="http://www.w3.org/2000/svg" xmlns:xlink="http://www.w3.org/1999/xlink" x="0px" y="0px"
	 viewBox="0 0 182.131 182.131" style="enable-background:new 0 0 182.131 182.131;" xml:space="preserve">
<g>
	<path d="M91.065,0C40.852,0,0,40.852,0,91.065s40.852,91.065,91.065,91.065s91.065-40.852,91.065-91.065S141.279,0,91.065,0z
		 M91.065,167.131C49.123,167.131,15,133.008,15,91.065S49.123,15,91.065,15s76.065,34.123,76.065,76.065
		S133.008,167.131,91.065,167.131z"/>
	<path d="M138.072,67.896h-23.838V44.059c0-4.142-3.357-7.5-7.5-7.5H75.396c-4.143,0-7.5,3.358-7.5,7.5v23.838H44.06
		c-4.143,0-7.5,3.358-7.5,7.5v31.338c0,4.142,3.357,7.5,7.5,7.5h23.837v23.837c0,4.142,3.357,7.5,7.5,7.5h31.338
		c4.143,0,7.5-3.358,7.5-7.5v-23.837h23.838c4.143,0,7.5-3.358,7.5-7.5V75.396C145.572,71.254,142.215,67.896,138.072,67.896z
		 M130.572,99.234h-23.838c-4.143,0-7.5,3.358-7.5,7.5v23.837H82.896v-23.837c0-4.142-3.357-7.5-7.5-7.5H51.56V82.896h23.837
		c4.143,0,7.5-3.358,7.5-7.5V51.559h16.338v23.838c0,4.142,3.357,7.5,7.5,7.5h23.838V99.234z"/>
</g>
<g>
</g>
<g>
</g>
<g>
</g>
<g>
</g>
<g>
</g>
<g>
</g>
<g>
</g>
<g>
</g>
<g>
</g>
<g>
</g>
<g>
</g>
<g>
</g>
<g>
</g>
<g>
</g>
<g>
</g>
</svg>
