<svg id="Capa_1" enable-background="new 0 0 512.007 512.007" height="512" viewBox="0 0 512.007 512.007" width="512" xmlns="http://www.w3.org/2000/svg"><g><path d="m249.691 216.015c5.531-6.168 5.015-15.651-1.153-21.183s-15.652-5.014-21.182 1.153c-11.945 13.321-32.72 13.365-44.705 0-5.532-6.168-15.015-6.683-21.182-1.153-6.168 5.531-6.684 15.015-1.153 21.183 23.838 26.584 65.457 26.673 89.375 0z"/><path d="m434.602 285.95h1.451c8.284 0 15-6.716 15-15s-6.716-15-15-15h-11.106c3.302-9.583 10.257-13.443 11.729-14.167 8.724-3.411 14.966-19.48 7.011-33.263-4.881-8.454-13.624-13.502-23.386-13.502h-63.421c-20.779 0-33.789 22.486-23.385 40.504 3.643 6.31 7.659 4.837 13.651 11.612 2.265 2.562 3.966 5.509 5.108 8.815h-6.201c-8.284 0-15 6.716-15 15 0 7.159 5.019 13.136 11.728 14.631-6.413 8.417-14.616 18.094-22.044 27.014l-65.733-15.906v-12.724c35.588-18.237 60-55.304 60-97.965v-95.999c0-49.626-40.374-90-90-90h-40.039c-49.605 0-89.962 40.356-89.962 89.962v96.038c0 42.661 24.412 79.728 60 97.965v12.724l-76.061 18.405c-46.479 11.247-78.939 52.5-78.939 100.32v81.586c0 8.284 6.716 15 15 15 397.208-.028 380.077.071 381.541-.079 83.384-1.739 115.459-41.588 115.459-94.287 0-47.971-51.241-97.385-77.401-131.684zm-24.923-60.931c-6.576 6.603-13.302 16.591-15.633 30.932h-10.916c-2.333-14.339-9.055-24.33-15.629-30.932zm-284.676-135.057c0-33.063 26.898-59.962 59.961-59.962h40.039c33.084 0 60 26.916 60 60 0 8.85-7.2 16.05-16.05 16.05h-64.335v-24.66c0-14.746-19.166-20.622-27.427-8.4-12.103 17.904-31.129 29.568-52.188 32.394zm0 96.038v-50.444c17.971-1.713 35.016-7.988 49.615-18.06v3.554c0 8.284 6.716 15 15 15 78.748-.893 82.074 2.075 95.385-2.891v52.841c0 44.112-35.888 80-80 80s-80-35.888-80-80zm100 108.172v36.828h-40v-36.828c12.843 2.369 26.424 2.505 40 0zm-195 121.243c0-33.921 23.026-63.184 55.995-71.162l69.005-16.698v18.445c0 8.284 6.716 15 15 15h70c8.284 0 15-6.716 15-15v-18.445l45.028 10.896c-18.755 24.911-34.854 52.304-34.854 79.184 0 26.749 8.376 48.532 24.5 64.365h-259.674zm358.588 66.585c-52.091 0-93.413-12.32-93.413-64.365 0-42.08 65.632-98.403 83.272-131.685h20.237c17.599 33.402 83.317 89.603 83.317 131.685-.001 52.1-41.42 64.365-93.413 64.365z"/></g></svg>