<svg id="Capa_1" enable-background="new 0 0 512.012 512.012" height="512" viewBox="0 0 512.012 512.012" width="512" xmlns="http://www.w3.org/2000/svg"><g><path d="m480.006 73h-49v-58c0-8.284-6.716-15-15-15h-320c-8.284 0-15 6.716-15 15v58h-34v-17c0-8.284-6.716-15-15-15s-15 6.716-15 15v72c0 8.284 6.716 15 15 15s15-6.716 15-15v-25h34v57c0 8.284 6.716 15 15 15h320c8.284 0 15-6.716 15-15v-57h34v93.288l-212.638 53.16c-6.678 1.669-11.362 7.669-11.362 14.552v49h-17c-7.921 0-14.477 6.159-14.971 14.064-8.584 137.35-8.029 128.21-8.029 128.936 0 14.657 5.657 28.582 15.931 39.209 21.651 22.4 56.481 22.407 78.139 0 10.273-10.627 15.931-24.552 15.931-39.209 0-.725.554 8.401-8.029-128.936-.494-7.905-7.05-14.064-14.971-14.064h-17v-37.288l212.638-53.16c6.678-1.669 11.362-7.669 11.362-14.552v-120c-.001-8.284-6.717-15-15.001-15z"/></g></svg>